<svg xmlns="http://www.w3.org/2000/svg" viewBox="0 0 24 24" fill="#9933CC">
  <path d="M12 0C5.372 0 0 5.372 0 12s5.372 12 12 12 12-5.372 12-12S18.628 0 12 0zm0 3.6c4.636 0 8.4 3.764 8.4 8.4 0 2.809-1.38 5.296-3.498 6.82a.75.75 0 11-.884-1.213C17.926 16.2 19.2 14.237 19.2 12c0-3.976-3.224-7.2-7.2-7.2S4.8 8.024 4.8 12c0 2.237 1.274 4.2 3.182 5.607a.75.75 0 11-.884 1.213C4.98 17.296 3.6 14.809 3.6 12c0-4.636 3.764-8.4 8.4-8.4zm0 3.6a4.8 4.8 0 014.8 4.8c0 1.503-.69 2.845-1.772 3.726a.75.75 0 11-.956-1.153A3.3 3.3 0 0015.6 12 3.6 3.6 0 008.4 12a3.3 3.3 0 001.528 2.573.75.75 0 11-.956 1.153A4.8 4.8 0 0112 7.2zm0 3.6a1.2 1.2 0 110 2.4 1.2 1.2 0 010-2.4zm-.9 3.9h1.8l-.3 4.5a.6.6 0 01-1.2 0l-.3-4.5z"/>
</svg>
